<svg id="Calque_6" data-name="Calque 6" xmlns="http://www.w3.org/2000/svg" viewBox="0 0 75.85 197.39">
  <title>chatFesse</title>
  <path d="M87.18,97.62c3.37-17.24-9.79-31.67-12.35-48.12-1.37-8.84-1.49-18.74,1.68-27.23,3-8,10.89-16.53,20.24-15.35,8,1,3.1,6.69-.36,9.6a37.22,37.22,0,0,0-7.55,8.27,40.27,40.27,0,0,0-6.12,20.67C82.49,53.9,84.64,62.24,87.91,70c3.65,8.61,10,17.52,7.35,27.28-0.84,3.11,4,4.44,4.82,1.33,1.91-7.13,0-13.77-2.88-20.36-3.45-7.85-7.37-15.28-8.83-23.84-1.49-8.72-.55-18,4-25.74a32.49,32.49,0,0,1,7.58-8.58c2.13-1.77,4.46-3.62,5.68-6.18,2.26-4.71-.37-9.43-5-11.18-5.51-2.08-12.1-.3-16.9,2.76C71.44,13.28,68.48,28.4,69.11,42a72,72,0,0,0,6,25.43C79,76.53,84.36,86,82.36,96.29c-0.61,3.14,4.2,4.49,4.82,1.33h0Z" transform="translate(-48.55 -1.8)" style="fill: #559391"/>
  <path d="M84.4,98.21a18.54,18.54,0,0,0-19.93,5.58c-2.72,3.28-3.75,7.39-4.71,11.46q-2.08,8.88-3.68,17.86-1.41,7.89-2.47,15.83c-0.48,3.61-1.12,7.67.57,11.08,4,8,18.55,6.93,25.82,6.4,3.19-.23,3.22-5.23,0-5-6.14.45-21.21,2-21.91-6.51-0.59-7.1,1.87-15.4,3.16-22.37s2.31-14.71,4.81-21.46a13.36,13.36,0,0,1,17-8.05c3.07,1,4.38-3.83,1.33-4.82h0Z" transform="translate(-48.55 -1.8)" style="fill: #559391"/>
  <path d="M97.81,102.84c5.69-1.86,12.29.19,15.13,5.72,3.26,6.34,2.27,15.92,2.47,22.85q0.31,10.84.13,21.68c0,1.25.46,3.77-.11,4.93-0.93,1.9-2.36,1.84-4.34,2.3A69.47,69.47,0,0,1,99,161.93c-3.2.17-3.22,5.17,0,5a76.58,76.58,0,0,0,14.32-2c3.06-.75,5.88-1.35,6.84-4.67,1.23-4.25.44-9.65,0.45-14.06q0-8.87-.29-17.74c-0.28-8.06.61-18.45-4.87-25.11a17.62,17.62,0,0,0-19-5.32c-3,1-1.74,5.83,1.33,4.82h0Z" transform="translate(-48.55 -1.8)" style="fill: #559391"/>
  <path d="M77.43,165l1.22,14c0.28,3.18,5.28,3.21,5,0l-1.22-14c-0.28-3.18-5.28-3.21-5,0h0Z" transform="translate(-48.55 -1.8)" style="fill: #559391"/>
  <path d="M96.49,166a57.56,57.56,0,0,1-1.65,16.4c-0.78,3.12,4,4.45,4.82,1.33A62.45,62.45,0,0,0,101.49,166c-0.13-3.21-5.13-3.22-5,0h0Z" transform="translate(-48.55 -1.8)" style="fill: #559391"/>
  <path d="M81.65,180.93c-4-.78-8.7-1.45-12.39.73a8.13,8.13,0,0,0-3.5,10A11.52,11.52,0,0,0,75,198.81c5.63,0.71,10.86-2.43,15.39-5.33,2.7-1.73.2-6.06-2.52-4.32-4.33,2.77-11.35,7.47-16,2.82-2.33-2.32-2.06-5.39,1.18-6.5,2.21-.76,5.08-0.16,7.29.27,3.14,0.61,4.49-4.2,1.33-4.82h0Z" transform="translate(-48.55 -1.8)" style="fill: #559391"/>
  <path d="M96.21,187.28c3.59-1,8.71-2.76,12.16-.47,1.14,0.76,2.65,2.85,2.44,4.39-0.39,2.86-3.53,2.71-5.47,2.8-5.34.26-12.41,0-15.38-5.19-1.6-2.79-5.92-.28-4.32,2.52,2.83,4.95,7.83,6.85,13.29,7.44,4.71,0.51,11.86,1.24,15.24-2.91,2.77-3.41,1.67-8.42-1.07-11.5-4.66-5.23-12.33-3.57-18.21-1.91-3.09.87-1.78,5.7,1.33,4.82h0Z" transform="translate(-48.55 -1.8)" style="fill: #559391"/>
  <path d="M81.24,116.74A26,26,0,0,1,96,128.15c1.68,2.74,6,.23,4.32-2.52a31.27,31.27,0,0,0-17.78-13.7c-3.09-.93-4.41,3.89-1.33,4.82h0Z" transform="translate(-48.55 -1.8)" style="fill: #559391"/>
  <path d="M85.26,129.64a19.29,19.29,0,0,1,9.18-13.16c2.76-1.64.25-6-2.52-4.32a24.18,24.18,0,0,0-11.48,16.15c-0.62,3.14,4.2,4.49,4.82,1.33h0Z" transform="translate(-48.55 -1.8)" style="fill: #559391"/>
  <path d="M66,102.41C65,97,66,91.07,63.38,86.08c-2.31-4.35-8.88-6.22-9.94-11L51,78.28a17,17,0,0,1,14.59,9.55c1.47,2.86,5.78.34,4.32-2.52A22,22,0,0,0,51,73.28a2.53,2.53,0,0,0-2.41,3.16c1.08,4.79,5,6.36,8.33,9.46,4.69,4.43,3.17,12,4.23,17.84,0.57,3.16,5.39,1.82,4.82-1.33h0Z" transform="translate(-48.55 -1.8)" style="fill: #559391"/>
  <path d="M72,89.5c3.22,0,3.22-5,0-5s-3.22,5,0,5h0Z" transform="translate(-48.55 -1.8)" style="fill: #559391"/>
  <path d="M67,89.5H82c3.22,0,3.22-5,0-5H67c-3.22,0-3.22,5,0,5h0Z" transform="translate(-48.55 -1.8)" style="fill: #559391"/>
  <path d="M99,90.5h7c3.22,0,3.22-5,0-5H99c-3.22,0-3.22,5,0,5h0Z" transform="translate(-48.55 -1.8)" style="fill: #559391"/>
  <path d="M109.6,88.39a24.6,24.6,0,0,1,12.94-13.68l-3.67-1.49c2.2,6-3.54,10.18-6.52,14.64A26.9,26.9,0,0,0,108.18,100c-0.36,3.19,4.64,3.17,5,0,0.77-6.75,4.72-10.6,8.35-15.9,2.54-3.71,3.76-7.93,2.16-12.26A2.55,2.55,0,0,0,120,70.39a29.56,29.56,0,0,0-15.23,16.67c-1.15,3,3.68,4.31,4.82,1.33h0Z" transform="translate(-48.55 -1.8)" style="fill: #559391"/>
</svg>
