<svg id="Calque_5" data-name="Calque 5" xmlns="http://www.w3.org/2000/svg" viewBox="0 0 164.47 119.38">
  <title>chat</title>
  <path d="M28,79.3C25.18,94,22,112.75,29.44,126.54c6.05,11.24,18.34,17.26,30.14,20.58,16.19,4.55,33.75,5.73,50.49,5.83,14.39,0.08,30.68-1.27,41-12.6,12.92-14.19,11.56-34.46,9.75-52.16-0.32-3.17-5.33-3.2-5,0,1.87,18.29,3.78,42.53-14.41,53.71-7.33,4.5-16.22,5.66-24.65,6a218.88,218.88,0,0,1-29.33-1.09c-15.49-1.52-33.59-3.66-46.16-13.85-15.29-12.4-11.74-35.2-8.49-52.3,0.6-3.14-4.22-4.49-4.82-1.33h0Z" transform="translate(-11.35 -33.57)" style="fill: #314b56"/>
  <path d="M161,86.17a179.73,179.73,0,0,0,14.72-43.42,2.53,2.53,0,0,0-3.67-2.82,276,276,0,0,0-39.46,23.77c-2.58,1.87-.09,6.21,2.52,4.32a276,276,0,0,1,39.46-23.77l-3.67-2.82a174.64,174.64,0,0,1-14.22,42.23c-1.4,2.88,2.91,5.42,4.32,2.52h0Z" transform="translate(-11.35 -33.57)" style="fill: #314b56"/>
  <path d="M131.69,64.19c-27.54-8.5-56.48-2.84-84.7-5.11-3.21-.26-3.19,4.74,0,5,27.75,2.23,56.29-3.42,83.37,4.93,3.08,1,4.4-3.87,1.33-4.82h0Z" transform="translate(-11.35 -33.57)" style="fill: #314b56"/>
  <path d="M45.59,59.41A228.87,228.87,0,0,1,19,35.71a2.53,2.53,0,0,0-4.27,1.77A104.69,104.69,0,0,0,18,61.21c1.57,6.66,4.13,12.87,9.2,17.61,2.35,2.2,5.89-1.33,3.54-3.54-4.85-4.54-6.88-10.58-8.25-16.92a99.42,99.42,0,0,1-2.73-20.89l-4.27,1.77A236.89,236.89,0,0,0,43.07,63.72c2.56,1.95,5.06-2.39,2.52-4.32h0Z" transform="translate(-11.35 -33.57)" style="fill: #314b56"/>
  <path d="M57.22,120.71c1.09,7.92,7.6,16.38,16.18,16.81,8.25,0.42,10.21-8.55,10.34-15,0.06-2.75-4.43-3.5-4.91-.66-1.7,9.93,6.51,18.55,16.34,19s18.84-9,13.28-18.55c-1.62-2.78-5.94-.27-4.32,2.52,4.19,7.21-4.57,12-10.71,10.79-5.64-1.14-10.82-6.3-9.78-12.39l-4.91-.66c-0.11,5.4-1.66,12.64-9,8.78-4.55-2.41-7.06-6.92-7.75-11.89-0.44-3.17-5.26-1.82-4.82,1.33h0Z" transform="translate(-11.35 -33.57)" style="fill: #314b56"/>
  <path d="M47.95,99.46c-2.46-4.52.47-11.32,5.76-12.13,5.64-.86,10.44,6.15,8.25,11.23-1.26,2.92,3,5.47,4.32,2.52,3.62-8.42-2.72-19.52-12.49-18.79C44.55,83,39.39,94.19,43.63,102c1.54,2.83,5.86.31,4.32-2.52h0Z" transform="translate(-11.35 -33.57)" style="fill: #314b56"/>
  <path d="M100.74,102.39c-2.92-6.31,5.55-9.25,10.15-9.12,3.74,0.11,3.49,2.3,4,5.43l1.45,9c0.51,3.17,5.33,1.82,4.82-1.33l-1.45-9c-0.35-2.15-.27-5-1.62-6.83-2.19-2.94-7.82-2.52-11-2.06-7.9,1.15-14.36,8.45-10.67,16.43,1.35,2.92,5.66.38,4.32-2.52h0Z" transform="translate(-11.35 -33.57)" style="fill: #314b56"/>
  <path d="M168.08,45.8c2.29,12.45-11.6,19.66-19.06,27s-11.28,16.9-14.66,26.52c-1.07,3,3.76,4.35,4.82,1.33,2.15-6.13,4.44-12.26,8-17.74,3.42-5.29,8.15-9.09,12.94-13.07,7.74-6.43,14.77-14.59,12.79-25.32-0.58-3.16-5.4-1.82-4.82,1.33h0Z" transform="translate(-11.35 -33.57)" style="fill: #314b56"/>
  <path d="M12.66,36c-0.45,11.36-2.19,23.51-.74,34.82,1,7.74,4.84,14.66,12.42,17.45,3,1.11,4.33-3.72,1.33-4.82-8.58-3.16-9.26-13.33-9-21.09,0.24-8.79.69-17.58,1-26.36,0.13-3.22-4.87-3.21-5,0h0Z" transform="translate(-11.35 -33.57)" style="fill: #314b56"/>
  <path d="M78,115.5c3.22,0,3.22-5,0-5s-3.22,5,0,5h0Z" transform="translate(-11.35 -33.57)" style="fill: #314b56"/>
</svg>
