<svg id="Calque_4" data-name="Calque 4" xmlns="http://www.w3.org/2000/svg" viewBox="0 0 96.85 114.57">
  <title>coeur</title>
  <path d="M103.8,144.69q-16.71-10.28-32.95-21.3c-9.35-6.38-19-13.33-25.28-23C40.9,93.2,34.72,72.68,50,73.54c6.23,0.35,13,3.7,18.5,6.48A88.47,88.47,0,0,1,84.91,90.88a2.54,2.54,0,0,0,4.27-1.77c1-13.54-2.36-30.85,7.71-41.77a23.75,23.75,0,0,1,18-7.51c4.46,0.17,8.79,1.4,10.7,5.79,1.44,3.3,1.37,7.09,1.38,10.63a186.41,186.41,0,0,1-22.57,88.81c-1.53,2.83,2.79,5.36,4.32,2.52a192.5,192.5,0,0,0,23.09-83.36c0.45-11,1.5-25.8-12-28.79a28.54,28.54,0,0,0-28.25,10.5c-9.26,12.3-6.36,28.85-7.39,43.18l4.27-1.77A93.34,93.34,0,0,0,69.47,75c-6.26-3-13.86-6.63-20.95-6.54-11.87.15-15,13.47-12.52,22.93,3.31,12.69,13.33,22.34,23.43,30,13.28,10.09,27.66,18.92,41.85,27.65,2.75,1.69,5.26-2.63,2.52-4.32h0Z" transform="translate(-35.21 -34.82)" style="fill: #ad5a76"/>
</svg>
