<svg id="Calque_7" data-name="Calque 7" xmlns="http://www.w3.org/2000/svg" viewBox="0 0 110.77 166.51">
  <title>lapin</title>
  <path d="M52.18,116.33a322.8,322.8,0,0,0-9-44.44C41,64.1,41.41,56,41.3,47.93c-0.07-5.18-1.79-14.42,1.56-19s8.74-1.73,10.95,2.31c1.69,3.08,2.09,6.76,2.59,10.17,1.13,7.81,2.19,15.62,3.28,23.43l6.83,48.82c0.44,3.17,5.26,1.82,4.82-1.33L62.86,51.82c-1.1-7.83-1-17.69-5.56-24.44-3.07-4.5-9.23-7.49-14.48-4.95s-6.38,8.5-6.62,13.67a249.8,249.8,0,0,0,.38,26.59c0.56,8.83,4,17.1,5.91,25.69,2.16,9.66,3.5,19.48,4.86,29.28,0.44,3.17,5.26,1.82,4.82-1.33h0Z" transform="translate(-20.79 -17.12)" style="fill: #d3d3c9"/>
  <path d="M70,116.5H83c3.22,0,3.22-5,0-5H70c-3.22,0-3.22,5,0,5h0Z" transform="translate(-20.79 -17.12)" style="fill: #d3d3c9"/>
  <path d="M88.57,114c-1.5-16.89,3.05-34.38,5.67-51,1.31-8.34,2.58-16.7,3.93-25,0.58-3.59,1.08-7.41,2.88-10.63s6.25-6.86,10.15-4.45c3.15,1.94,3.29,6.78,3.49,10,0.28,4.52.38,9.06,0.48,13.58q0.28,12.62,0,25.24c-0.41,16.83-1.62,33.62-3.56,50.34-0.37,3.19,4.63,3.16,5,0a550,550,0,0,0,3.72-62c0-9.91.24-20.08-.82-29.94-0.61-5.69-3-11.78-9.32-12.78C92.51,14.51,92.3,43.32,90.63,54L85.78,84.77c-1.52,9.7-3.09,19.38-2.21,29.22,0.28,3.18,5.29,3.21,5,0h0Z" transform="translate(-20.79 -17.12)" style="fill: #d3d3c9"/>
  <path d="M48.29,118.44c-25.75,5.76-41,51.34-10.91,61.69,7.37,2.53,15.44,2.78,23.15,3.13q15.3,0.7,30.62,0c15.41-.67,32.56-1.25,37.51-18.74C133,149.22,135,125,115.77,119.17c-3.08-.94-4.4,3.88-1.33,4.82,10.24,3.13,12.86,14.4,12.16,23.88-0.6,8.15-1.9,20.38-9.14,25.49-6.76,4.78-16.51,4.46-24.39,4.85q-14.34.7-28.71,0.2c-8.07-.28-16.55-0.33-24.35-2.69-9.21-2.79-13.85-9.17-14-18.8-0.21-14.72,8.54-30.29,23.6-33.66,3.14-.7,1.81-5.52-1.33-4.82h0Z" transform="translate(-20.79 -17.12)" style="fill: #d3d3c9"/>
  <path d="M60.64,130.62c-8.72-1.86-17.71,2.32-20.63,11.09s1.16,17,10.51,17.9c7.42,0.75,16.8-.28,17.95-9.3,0.62-4.87,1.93-23.28-7.93-19.49-3,1.14-1.68,6,1.33,4.82,1.71-.66,1.93,13.95,1.43,15.27-1.72,4.57-8.09,4.15-12,3.76-6.83-.68-8.7-7-6-12.66,2.57-5.37,8.27-7.79,14-6.57,3.14,0.67,4.48-4.15,1.33-4.82h0Z" transform="translate(-20.79 -17.12)" style="fill: #d3d3c9"/>
  <path d="M109.24,132.74c-14.86-13.33-33,16.64-19.26,27.47,5.18,4.1,17.84,5.73,23.39,1.77,3.53-2.52,3.34-7.16,3.21-11.07a64.18,64.18,0,0,0-3.46-18.48c-1-3-5.86-1.73-4.82,1.33a57.61,57.61,0,0,1,3.31,19c0,4.21-1.34,5.73-5.56,6a30.51,30.51,0,0,1-8-.38c-17.17-3.55-2.22-30.88,7.61-22.06,2.39,2.14,5.94-1.38,3.54-3.54h0Z" transform="translate(-20.79 -17.12)" style="fill: #d3d3c9"/>
</svg>
