<svg id="Calque_13" data-name="Calque 13" xmlns="http://www.w3.org/2000/svg" viewBox="0 0 132.18 142.07">
  <title>monster</title>
  <path d="M100,25c-14.47-2-30.36-3.14-44.77,0-13,2.81-20.69,14.28-25.67,25.84-9.76,22.66-11.15,51.69-2.9,75,3.68,10.43,9.69,20.11,18.5,26.94,10.44,8.09,23.43,11.21,36.4,12a185.33,185.33,0,0,0,20.74-.06c6.5-.31,13.22-0.41,19.55-2.09,12.33-3.28,19.83-13.71,24.54-25,12.71-30.28,5.66-64.27-1.16-95.07-0.5-2.25-3.43-2.25-4.57-.6-20.07,29.09-51.12,47.37-81,64.8L63,110.26l37.47-80.87c1.34-2.9-3-5.44-4.32-2.52L58.73,107.73c-1,2.16,1.11,4.77,3.42,3.42C92.87,93.26,124.39,74.42,145,44.56l-4.57-.6c5.47,24.71,11.16,50.89,6.12,76.17-2.27,11.39-6.65,24.05-15.48,32.06-9.42,8.54-24.3,7.57-36.22,7.83s-24.32-.29-35.52-4.83a47.61,47.61,0,0,1-24.08-22.12c-10.57-19.75-10.77-45.5-5.58-66.83,2.94-12.06,8.9-28.49,20.81-34.48,6.8-3.42,15.55-3.32,23-3.48a158.66,158.66,0,0,1,25.18,1.49c3.15,0.44,4.51-4.38,1.33-4.82h0Z" transform="translate(-21.26 -23.01)" style="fill: #bc205d"/>
  <path d="M45.78,56.84c-3.68-.46-6.81,2-8,5.43-1.4,4.09.76,8.14,3.3,11.25,5.53,6.75,15.66,14.57,23.31,6,3.25-3.66,4.1-8.52,3.75-13.28-0.31-4.25-.54-10.12-4.4-12.72-7.23-4.86-19.63-5.24-23.36,3.87-1.22,3,3.62,4.27,4.82,1.33,2.13-5.2,10.59-4,14.42-1.67,4.29,2.58,4.46,11.64,2.94,15.89C60,80.23,53.4,78.67,48.72,74.37a32.08,32.08,0,0,1-4.59-5c-1.43-2.06-3.5-8.15,1.64-7.5,3.18,0.4,3.15-4.6,0-5h0Z" transform="translate(-21.26 -23.01)" style="fill: #bc205d"/>
  <path d="M63.39,107.54A37.92,37.92,0,0,0,78.06,95.48c4.38-6,5.54-12.33,7.31-19.39,1.44-5.73,4.15-8.63,10.2-8.49a18.6,18.6,0,0,0,8.37-1.48,17.72,17.72,0,0,0,10.24-13.9c0.65-4.64-1.83-21.83,6.95-20.31,3.27,0.57,3.24,3.24.92,5a26,26,0,0,1-3.74,1.86,12.28,12.28,0,0,0-5.4,4.68c-2.94,5.33,1.48,13.94-4,17.72-4.43,3.07-10.84,2.18-15.58,4.88C86.81,69.8,86.9,77.69,82.35,83c-4.11,4.76-10.09,7.66-11.23,14.39-0.53,3.15,4.28,4.5,4.82,1.33,1.17-6.88,9.3-10,12.6-15.84,1.7-3,2.35-6.56,4.25-9.46,2.28-3.5,6-4.25,9.86-5.08C108,67.15,113.89,65.8,116,60c1-2.91.69-6,.64-9-0.09-5.28,2.18-6.82,6.43-9s8.22-6.84,4.65-11.65a9.26,9.26,0,0,0-12.82-1.67c-5.75,4.39-5.37,12.21-5.39,18.65,0,5.15-1,9.94-5.54,13.05-4.3,3-8.37,1.4-13,2.26-9,1.67-9.91,11.53-11.71,18.76a32.92,32.92,0,0,1-18.3,21.76c-2.91,1.37-.37,5.68,2.52,4.32h0Z" transform="translate(-21.26 -23.01)" style="fill: #bc205d"/>
</svg>
