<svg id="Calque_1" data-name="Calque 1" xmlns="http://www.w3.org/2000/svg" viewBox="0 0 136.54 167.54">
  <title>spirale</title>
  <path d="M125.71,26.47A197.51,197.51,0,0,0,87.64,23c-9.58.15-19,2.69-23.41,12a19.3,19.3,0,0,0,4,22.3C75.15,63.88,84,64,92.36,60.53c11.92-4.92,25-10.35,37.54-3.87,10.77,5.57,14.7,17.35,9,28.11-12.5,23.53-45.28,17.91-67.12,16.67L52,100.33c-4.95-.28-13-2.52-17.33.58-3.27,2.34-3.54,7-4,10.58a64.29,64.29,0,0,0-.58,16.08c2.42,20.34,22.66,27.28,40.64,23.16,11.87-2.72,22.46-9.12,34-12.86,12.24-4,25.51-4.9,38.31-4.65,7.46,0.15,12.57,2.52,15.73,9.5a31.43,31.43,0,0,1,2.5,15.16c-0.71,9.72-5.7,19.51-14.24,24.57-19.26,11.4-49.44-10-35.43-31.7,6.82-10.55,27.1-10.39,27.64,4.64,0.21,5.89-3.69,12.18-10.15,11.93a11.63,11.63,0,0,1-7.87-3.6,9.81,9.81,0,0,1-1.64-2.35,7.48,7.48,0,0,1-.73-3.28q-0.3-3.89,4.52-3.24c0.38,3.16,5.38,3.19,5,0-0.44-3.71-3.21-6.53-7.19-6.23-4.68.35-7.29,5.21-7.33,9.47-0.08,9.06,9.84,15.57,18.28,14,8.91-1.67,13.36-11.43,11.77-19.77-1.91-10-12.11-15.33-21.7-13.93-10.8,1.58-18,11.28-18.87,21.78-0.8,9.46,3.86,18.21,11.33,23.81,17.15,12.87,40.49,6.07,48.66-13.51a38.11,38.11,0,0,0,.55-28.47c-1.92-4.81-4.88-9.38-9.66-11.72-6.05-3-13.72-2.13-20.22-1.9A114.6,114.6,0,0,0,92,137.45c-12.4,5.3-25.54,11.8-39.4,8.7-6.1-1.36-11.73-4.59-14.86-10.16-3.76-6.68-3.26-14.87-2.39-22.22,0.61-5.16.54-8.45,6.75-9,3.8-.34,8,0.45,11.86.67l25.7,1.45c23.33,1.32,55.78,3.14,65.48-24,4.18-11.68-.95-23.73-11.5-29.88-12.28-7.15-26.82-4.29-39.14,1.13-7.9,3.48-16.31,6.3-23.21-.79-5.66-5.82-5.11-15.25.71-20.78,6.27-6,16.89-4.72,24.82-4.39a202.33,202.33,0,0,1,27.54,3.09c3.15,0.57,4.5-4.25,1.33-4.82h0Z" transform="translate(-29.77 -23.01)" style="fill: #231f20"/>
</svg>
