<svg width="250" height="250" xmlns="http://www.w3.org/2000/svg">
  <path id="svg_1" d="m6.749992,125.359983l0,0c0,-65.721874 53.27809,-118.99999 118.99993,-118.99999l0,0c31.56073,0 61.828842,12.537456 84.145641,34.854283c22.316824,22.316835 34.854289,52.584938 34.854289,84.145708l0,0c0,65.721866 -53.27809,118.99999 -118.99993,118.99999l0,0c-65.721833,0 -118.99993,-53.278125 -118.99993,-118.99999zm59.499965,0l0,0c0,32.860929 26.639061,59.499995 59.499965,59.499995c32.860928,0 59.499965,-26.639066 59.499965,-59.499995c0,-32.860929 -26.639053,-59.499995 -59.499965,-59.499995l0,0c-32.860904,0 -59.499965,26.639074 -59.499965,59.499995z" stroke-width="1.5" stroke="#ff5656" fill="#fff"/>
</svg>