<svg width="250" height="250" xmlns="http://www.w3.org/2000/svg">
  <path id="svg_2" d="m200.138334,67.092771c-0.679917,-28.999926 -24.395711,-52.301854 -53.565621,-52.316634c-19.495876,0.00739 -36.523358,10.435243 -45.879605,25.992033c-4.397288,-2.41666 -9.459712,-3.820836 -14.854705,-3.820836c-16.842722,0.014781 -30.544524,13.347061 -31.157928,30.049362c-17.685228,5.808854 -30.485401,22.355957 -30.500182,42.021809c0,24.477001 19.858006,44.342394 44.342402,44.342394l0,-0.014781l38.9548,0l-16.007607,25.112576l14.610821,-3.037454l-19.540218,65.855845l67.533478,-74.65781l-15.800676,1.677621l16.014997,-14.950777l31.549619,0c24.477006,0 44.342402,-19.865392 44.342402,-44.342394c-0.014781,-19.488482 -12.593242,-35.969072 -30.041977,-41.910953zm-14.300425,71.487329l-117.322604,0c-16.325394,-0.044342 -29.53943,-13.243595 -29.568991,-29.568986c-0.014781,-14.647771 10.71608,-26.738463 24.757841,-29.051658c1.958456,-0.317787 3.709981,-1.411566 4.855493,-3.059625c1.145512,-1.648059 1.566765,-3.673028 1.204635,-5.638874c-0.206931,-1.093779 -0.332568,-2.128435 -0.332568,-3.133529c0.029562,-9.053239 7.353448,-16.377124 16.406689,-16.391905c4.781589,0 8.994117,2.054531 12.068524,5.402382c1.721963,1.899333 4.338165,2.7714 6.850901,2.283633c2.527517,-0.487766 4.626391,-2.268852 5.528019,-4.655951c5.53541,-14.721675 19.673246,-25.216041 36.294256,-25.20126c21.42477,0.029562 38.755259,17.367438 38.806992,38.792204c0,1.189854 -0.066514,2.40927 -0.199541,3.673028c-0.36213,3.820836 2.254072,7.272153 6.023176,7.97424c13.746144,2.542297 24.19617,14.529524 24.173999,28.992535c-0.029562,16.332782 -13.221426,29.539425 -29.54682,29.583767z" fill-opacity="null" stroke-opacity="null" stroke-width="1.5" stroke="#ff5656" fill="#fff"/>
</svg>