<svg width="250" height="250" xmlns="http://www.w3.org/2000/svg">
  <path id="svg_4" d="m124.315022,69.531384c-64.839709,0 -116.00001,66.283265 -116.00001,66.283265s51.160301,66.291858 116.00001,66.291858c49.587856,0 116.00001,-66.291858 116.00001,-66.291858s-66.412154,-66.283265 -116.00001,-66.283265zm0,107.587861c-22.76178,0 -41.304596,-18.534224 -41.304596,-41.304596s18.542816,-41.304596 41.304596,-41.304596s41.304596,18.542816 41.304596,41.304596s-18.542816,41.304596 -41.304596,41.304596zm0,-65.415413c-13.309927,0 -24.110817,10.792297 -24.110817,24.110817c0,13.31852 10.792297,24.110817 24.110817,24.110817c13.31852,0 24.110817,-10.792297 24.110817,-24.110817c0,-13.309927 -10.792297,-24.110817 -24.110817,-24.110817z"/>
</svg>