<svg id="Calque_8" data-name="Calque 8" xmlns="http://www.w3.org/2000/svg" viewBox="0 0 104.46 142.46">
  <title>eww</title>
  <path d="M49.72,110.48C44.08,98.11,38.28,85.79,32.79,73.35a58.4,58.4,0,0,1-5.34-19.94c-0.2-3-.18-6-0.11-9,0.05-2.09-.65-7.23.89-8.9,2.83-3.07,5.23,2.73,6.37,4.91q2.1,4,4.14,8c3,6,5.91,12.05,8.46,18.26C52.11,78.66,55.78,91.11,57,104c0.3,3.18,5.31,3.21,5,0-1.53-16-6.52-31.21-13.1-45.84-3.45-7.69-7.27-15.22-11.26-22.65-2-3.77-5.19-8.84-10.28-6.49-4.31,2-4.75,7.7-4.93,11.8-0.34,8-.36,16.13,1.79,23.9,2.25,8.13,6.33,15.79,9.82,23.44L45.41,113c1.33,2.92,5.65.39,4.32-2.52h0Z" transform="translate(-22.29 -26.15)" style="fill: #e0853b"/>
  <path d="M60,109.5H74c3.22,0,3.22-5,0-5H60c-3.22,0-3.22,5,0,5h0Z" transform="translate(-22.29 -26.15)" style="fill: #e0853b"/>
  <path d="M80.67,107a238.74,238.74,0,0,1,1.52-38.67q1.23-10,3.36-19.83c0.93-4.34,2.4-13.9,7-16.08l3.87,0.34a19.34,19.34,0,0,1,.36,3c0.14,1.62.2,3.26,0.28,4.88q0.26,4.88.41,9.77,0.31,9.77.22,19.55c-0.13,13.69-.88,27.37-2.18,41-0.3,3.2,4.7,3.18,5,0a480.8,480.8,0,0,0,2.17-50.78c-0.09-8.45-.22-17-1-25.4-0.4-4.48-2.34-9.5-7.83-8.56-12,2-13.82,23.06-15.29,32a241.63,241.63,0,0,0-3,48.69c0.13,3.21,5.13,3.22,5,0h0Z" transform="translate(-22.29 -26.15)" style="fill: #e0853b"/>
  <path d="M98.85,115.94c7.57-1.1,18.66-2.24,21.93,6.71,2.43,6.64.9,15.59,0.81,22.54l-0.14,11.3c0,1,.4,4.81-0.07,5.65-1.12,2-4,1.38-5.84,1.38H53.86c-4.36,0-10.1,1.36-10.82-4.32-0.93-7.4-.72-15.12-1.06-22.57l-0.49-10.73c-0.1-2.14-1.09-15.7,4.75-11.21,2.55,2,5-2.38,2.52-4.32-4.13-3.17-9.69-.57-11.53,3.91-2.66,6.45-.56,15.59-0.25,22.35L37.6,150.1c0.18,4-.19,8.58,1,12.5,2.23,7.22,10.22,5.91,16.24,5.91h57.7c5.87,0,13.38,1.34,13.82-6.38,0.53-9.37.25-18.86,0.36-28.24,0.09-7.17.09-14.83-6-19.69-6.61-5.25-15.39-4.21-23.17-3.08-3.17.46-1.82,5.28,1.33,4.82h0Z" transform="translate(-22.29 -26.15)" style="fill: #e0853b"/>
  <path d="M49.86,140.44c-2.79,10.53,6.73,17.22,15.81,19.25,3.58,0.8,8.13,1.85,10.52-1.8,1.31-2,1.19-4.68,1.26-6.94,0.11-3.51.16-7,.23-10.54,0.06-3.31-4.6-3.09-5,0-1.36,10.58,7.07,21.58,18,22,5.49,0.23,8-2.89,8.83-8a72.84,72.84,0,0,0-.55-24c-0.55-3.16-5.37-1.82-4.82,1.33a72.63,72.63,0,0,1,1.08,14.69c-0.13,4.21.5,12-5.9,10.86-7.77-1.45-12.62-9.35-11.65-16.88h-5q-0.08,4.39-.18,8.78c0,1.68.38,5.6-1.84,6.32-1,.33-3.38-0.58-4.39-0.82-6-1.44-13.53-5.53-11.57-12.92,0.83-3.11-4-4.44-4.82-1.33h0Z" transform="translate(-22.29 -26.15)" style="fill: #e0853b"/>
  <path d="M30.81,57.92c-2.16,2.91-1.52,7.2.92,9.76a7.36,7.36,0,0,0,10.27.2,7.85,7.85,0,0,0,1.55-10.25,8.82,8.82,0,0,0-10-3.38c-3,1-1.72,5.88,1.33,4.82s6.77,2.06,4,4.88c-2.54,2.59-5.66-.95-3.76-3.51s-2.42-5.08-4.32-2.52h0Z" transform="translate(-22.29 -26.15)" style="fill: #e0853b"/>
  <path d="M91.76,56.5C82.18,54.78,81.66,67.88,86,73.33c2.34,2.93,6.2,2.27,8.53-.29,3.4-3.75,1-8,1.94-12.35,0.67-3.14-4.15-4.48-4.82-1.33a17.32,17.32,0,0,0-.21,5.26c0.12,1.38.81,4.65-1,5.39-1.56.65-4.2-9.43-.06-8.68,3.15,0.56,4.5-4.25,1.33-4.82h0Z" transform="translate(-22.29 -26.15)" style="fill: #e0853b"/>
</svg>
