<svg id="Calque_2" data-name="Calque 2" xmlns="http://www.w3.org/2000/svg" viewBox="0 0 74.46 80.69">
  <title>signature</title>
  <path d="M80.85,51.22c-7.39-5.39-17.34-3.08-24.14,2.17C48.12,60,44.25,70.4,42.65,80.81c-1.67,10.81-2.73,23,2.18,33.13,4.45,9.2,12.72,13.32,22.58,14.2,5.88,0.52,11.85.43,17.75,0.58,5.47,0.14,11.25.53,16.43-1.6,8.54-3.52,11.53-12.77,12.82-21.17,1.47-9.56,2.66-20.5-2.11-29.36-4.54-8.44-13.66-11.89-22.7-12.94-11-1.28-23.5-1.06-32.2,6.68-9.56,8.5-12,21.61-13,33.75h5C49.26,98.86,49.2,91.73,51.68,87c1.72-3.3,4.24-3.79,7.83-3.66,3.24,0.11,6.41.65,8.37,3.5a10,10,0,0,1-.52,11.84c-3.63,4.3-9.65,4.91-14.73,3.27l0.6,4.57a41.67,41.67,0,0,1,16.54-5.91c5.26-.64,13.69-0.24,14.22,6.69,0.35,4.67-3.52,9.1-7.84,10.27-6,1.62-12.15-1.12-17.08-4.34-2.7-1.76-5.21,2.56-2.52,4.32,6.54,4.27,15,7.31,22.69,4.24A15.72,15.72,0,0,0,89,107.24c-0.19-6.66-5.76-10.79-11.94-11.68-9.06-1.31-18.67,2-26.34,6.59a2.53,2.53,0,0,0,.6,4.57c7,2.24,15.21.83,20-5a15,15,0,0,0,.17-18.39C67.37,78,57.66,76.45,51.66,79.26c-7.51,3.52-7.45,18-7.25,24.81,0.09,3.25,4.74,3.18,5,0,0.77-9.41,2.32-19.5,8.48-27.05,5.91-7.24,13.84-8.78,22.78-8.82,7.73,0,16.51.53,22.81,5.53,6.87,5.45,7.55,14.51,7,22.64-0.47,7.08-1.1,15.93-5.46,21.86-5.73,7.79-17.6,5.54-26,5.33-8.1-.2-17.73.58-24.38-4.9-7.46-6.14-8.62-16.51-8.21-25.54,0.45-9.92,1.7-20.91,7.36-29.36,5.06-7.56,15.93-14.5,24.54-8.22,2.6,1.9,5.1-2.44,2.52-4.32h0Z" transform="translate(-41.25 -48.15)" style="fill: #231f20"/>
</svg>
