<svg id="Calque_12" data-name="Calque 12" xmlns="http://www.w3.org/2000/svg" viewBox="0 0 164.63 165.02">
  <title>spirale2</title>
  <path d="M136,28.64c1.91-9-11.42-8-16.64-8.06-12.24-.22-24.58-0.92-36.82-0.4-9.89.42-19.95,2.18-28.38,7.65C46.27,33,40.24,40.51,35.65,48.64,18,79.81,19.43,120.07,37,150.94c9,15.86,21.92,30.89,41,32.89,11.69,1.23,23.69.85,35.44,1.11,10.69,0.23,21.52.17,31.25-4.86,17.43-9,27.58-29.33,34.57-46.74,7.22-18,12.67-41.62,4.12-60.14-7.79-16.86-26.73-21.7-43.7-23.12-11.66-1-23.44-1-35.14-1-9.94,0-20.64-.77-28.76,6C68.19,61.34,63.32,71.3,59.47,80.18a114.15,114.15,0,0,0-8.53,31.13c-2.08,16.49.62,36.09,18.12,42.84,10,3.87,21.95,4,32.55,4.71s22,2.1,32.25-1c17.62-5.34,22.14-24.09,23.23-40.37,1.18-17.74-.68-37.31-19.14-45.13C123,66,105.79,70.1,94.56,81.55a55.17,55.17,0,0,0-12.86,22.13c-2.21,7-5.42,18.69-1.51,25.55,3.8,6.65,13.91,9.23,21,9.23a31.67,31.67,0,0,0,21-7.86c11.73-10.55,12.63-33.51-5.13-38.25C110,90.47,102.48,93.13,99,99.8c-3.07,5.92-2.15,15.87,5.25,18.2,5.77,1.81,11.63-4.74,8.1-10-1.78-2.66-6.11-.16-4.32,2.52-0.82-1.23-2.91,4.17-5,.09a9.81,9.81,0,0,1-.79-3.51,10.26,10.26,0,0,1,1.72-6c2.45-3.74,6.93-5,11.14-4.07,8.43,1.86,12.12,10.19,10.44,18.18-3.11,14.77-20.61,21.84-34,16.47-5-2-8-5.11-7.9-10.83a55.23,55.23,0,0,1,1.65-11.61,54.4,54.4,0,0,1,9-19.78c8.45-11.39,22.27-17.47,36.31-14.25a27.55,27.55,0,0,1,15.83,9.61c5.4,7,6.11,16.21,6,24.73-0.22,13.23-1,30.83-12.46,39.7-7.12,5.53-16.59,5.52-25.18,5.26-8.79-.27-17.58-0.87-26.33-1.75-8.48-.85-18.17-1.56-24.81-7.56-5.55-5-7.71-12.68-8.26-19.92-1.24-16.32,3.77-33.74,11-48.22,3.47-6.94,7.61-15,14.19-19.45C88.27,52.41,99.69,54,108.51,54c16,0.09,33.16-.55,48.61,4.11,7.22,2.17,14.2,5.92,18.75,12.11,4.83,6.56,6.43,14.88,6.58,22.87,0.33,17.61-5.47,35-13.32,50.51-6.88,13.64-16.1,28.65-31.28,34-8.72,3.07-18.25,2.45-27.34,2.24s-18.34-.25-27.49-0.68-17-2.35-23.91-8.4a83.14,83.14,0,0,1-14.41-16.85A102.38,102.38,0,0,1,31.28,72.78c3.64-13.93,10.44-28.42,21.64-37.85,14-11.78,33.42-10,50.5-9.64l13,0.24c1.4,0,15.25-.3,14.81,1.79-0.67,3.14,4.15,4.48,4.82,1.33h0Z" transform="translate(-23.11 -19.99)" style="fill: #be1e2d"/>
</svg>
