<svg id="Calque_3" data-name="Calque 3" xmlns="http://www.w3.org/2000/svg" viewBox="0 0 158.98 141.61">
  <title>ugly</title>
  <path d="M69,50.43C64.9,39.52,46.13,35.89,36.9,42.23c-5.83,4-5.42,11.11-5.41,17.38,0,6.89-1.17,15.53,3.74,21.17,4.29,4.92,11.2,5.63,17.32,5.75,5.5,0.11,12.82.86,17.62-2.37C76.59,79.84,74.52,69.6,74.57,63c0-5.34,1-16.24-7.49-15.2-3.15.39-3.19,5.39,0,5,1.63-.2,2.34,3.58,2.53,4.61a25.78,25.78,0,0,1,0,4.66l-0.06,7.46c0,2.87.71,7.69-1.49,10-1.44,1.5-4.28,1.75-6.21,1.91-7.15.6-20.09,1.79-23.94-5.73-2.14-4.17-1.39-9.83-1.39-14.37,0-4.76-1.13-11.79,3.24-14.93,6.07-4.37,21.66-2.13,24.48,5.35,1.12,3,6,1.69,4.82-1.33h0Z" transform="translate(-22.8 -16.29)" style="fill: #af1e48"/>
  <path d="M130.27,45.69c-13.55-2.5-32.37-3.52-37.09,13.09-2.29,8.08-1.14,17.73-.71,26,0.33,6.32-.26,17,5.08,21.55s15.38,5.84,22.15,6.78c8,1.1,16.67,1.47,24.57-.24,7.07-1.53,9.07-6.85,9.68-13.45a175.1,175.1,0,0,0,.59-27.33C154,64,152.13,55.42,146.2,49.45c-5-5-11.91-7.53-18.88-5.78-3.12.78-1.8,5.61,1.33,4.82,7.62-1.91,14.66,3.34,17.84,10,3.41,7.16,3.3,15.49,3.22,23.24q-0.06,6.05-.39,12.09c-0.19,3.47.23,8.3-1.63,11.34-2.44,4-9.72,3.56-13.8,3.69a80.52,80.52,0,0,1-11.72-.46c-6-.68-20.54-2.09-22.92-8.6C96.58,92.5,97.3,82.69,97.18,75c-0.13-8-1.06-18,6.7-22.93,7.49-4.79,16.87-3.07,25.06-1.56,3.15,0.58,4.49-4.24,1.33-4.82h0Z" transform="translate(-22.8 -16.29)" style="fill: #af1e48"/>
  <path d="M34.71,95c-2.4,21.82,4.27,58.59,31,62,6.65,0.86,13.51.53,20.2,0.6,6.27,0.07,13.2.92,19.19-1.32,11.68-4.37,15.61-17.31,18.34-28.24,0.78-3.12-4-4.45-4.82-1.33-2.5,10-6,23.21-17.76,25.6-5.65,1.15-12,.33-17.76.27S71.17,153,65.4,152C53.82,150.16,47.78,140.1,43.91,130A74.75,74.75,0,0,1,39.71,95c0.35-3.19-4.65-3.17-5,0h0Z" transform="translate(-22.8 -16.29)" style="fill: #af1e48"/>
  <path d="M46.88,62.16A3.4,3.4,0,0,0,44.51,57c-2.66-.45-4.13,2-4.74,4.18-1.42,5.2-.6,11.94,5.53,13.42s8.1-4.65,8.46-9.53-3.37-11.95-9.39-9.42c-2.92,1.22-1.64,6.06,1.33,4.82,1.92-.8,3,1.13,3.1,2.82,0.12,1.4.1,5.13-1.05,6.18s-2.77-.38-3.25-1.45a6.24,6.24,0,0,1-.36-3.19A14.59,14.59,0,0,1,44.48,63q0.92-1.8-1.93-1.75l0.25-1.93-0.24.35c-1.8,2.68,2.53,5.18,4.32,2.52h0Z" transform="translate(-22.8 -16.29)" style="fill: #af1e48"/>
  <path d="M118,68.11c-7.46.21-14.26,6.21-14.18,14s7.11,13.62,14.54,13.6a2.52,2.52,0,0,0,2.41-1.84,63.77,63.77,0,0,0,.07-19.6c-0.47-3.17-5.29-1.82-4.82,1.33A55.67,55.67,0,0,1,116,92.52l2.41-1.84c-11.86,0-12.28-17.24-.36-17.57,3.21-.09,3.22-5.09,0-5h0Z" transform="translate(-22.8 -16.29)" style="fill: #af1e48"/>
  <path d="M39.35,96.35A51.22,51.22,0,0,1,38.53,82c0.25-3.21-4.75-3.19-5,0a56.06,56.06,0,0,0,1,15.67c0.64,3.15,5.46,1.82,4.82-1.33h0Z" transform="translate(-22.8 -16.29)" style="fill: #af1e48"/>
  <path d="M41.94,36.3a26,26,0,0,1-15.42-4.45l-1.26,4.66a29.43,29.43,0,0,0,15.51-5.77c2.29-1.75,3.11-3.46,7-1.91,1.13,0.45,2.19,1.68,3.18,2.36a26.6,26.6,0,0,0,7.85,3.87c8.63,2.41,19.79-3.9,16.66-13.94l-4.57,1.93c3.5,5.54,7.59,11.57,14.37,13.17,6.2,1.46,11.5-1.32,14.11-7,1.63-3.57,3.7-10.87,8.53-5.39,1.71,1.94,2.55,4.28,4.76,5.82,5.17,3.58,11.93,1.87,17.36-.1,3.25-1.18,6.53-2.59,10.05-2.7,5.79-.18,6.37,4.34,10.23,7.21,5.12,3.8,10.86.54,16.45,0.88,2.8,0.17,6,1,5,4.7-0.35,1.31-1.58,2.57-2.09,3.88a15,15,0,0,0-.85,7.25A15.89,15.89,0,0,0,178,63.47l0.6-4.57a9.18,9.18,0,0,0-6.11,6,9,9,0,0,0-.32,4.2c0.22,1.27,2.63,4.35,2.44,5.28-0.31,1.5-5.74,3-6.95,3.77a6.53,6.53,0,0,0-3.38,5.7l3.16-2.41a23.07,23.07,0,0,1-10.25-4.59c-2.55-2-5,2.38-2.52,4.32a26.24,26.24,0,0,0,11.44,5.1,2.54,2.54,0,0,0,3.16-2.41c0-2.44,7.64-4.25,9.23-6.41,3.33-4.51-5-11.51,1.42-13.76,1.8-.63,2.73-3.62.6-4.57a11.06,11.06,0,0,1-6.62-8c-0.86-4,.89-6.22,2.4-9.64,2-4.49.21-8.43-4.19-10.44a15,15,0,0,0-7.79-1.1c-3.61.38-8.42,2.33-11.56-.38-2.67-2.31-3-5.08-6.41-6.69a14.7,14.7,0,0,0-7.67-1c-6.44.63-12.29,5-18.8,4.78-7.25-.26-7.07-8.87-13.51-10.25-5.3-1.13-8.72,3.77-10.49,8-2.05,4.89-4.78,8.73-10.68,6.58-4.69-1.71-7.5-6.5-10-10.48-1.47-2.32-5.44-.87-4.57,1.93,2.13,6.83-6.3,9.16-11.28,7.57-4.42-1.41-7.36-5.39-11.62-6.86-2.89-1-5.26-.14-7.6,1.65-4.67,3.56-8.88,6.13-14.88,6.68A2.52,2.52,0,0,0,24,36.17,30.6,30.6,0,0,0,41.94,41.3c3.21-.08,3.22-5.08,0-5h0Z" transform="translate(-22.8 -16.29)" style="fill: #af1e48"/>
  <path d="M122,130.73c0.1-.24,5.73-0.14,6.56-0.36a12.13,12.13,0,0,0,6-3.85,12.44,12.44,0,0,0,2.06-13.45c-1.32-2.93-5.63-.39-4.32,2.52,1.79,4-1.24,9.26-5.44,10-3.86.7-7.85-.81-9.66,3.78-1.18,3,3.65,4.29,4.82,1.33h0Z" transform="translate(-22.8 -16.29)" style="fill: #af1e48"/>
  <path d="M76.39,135.21A98.18,98.18,0,0,0,100,138.65c3.22,0.08,3.22-4.92,0-5a92.49,92.49,0,0,1-22.28-3.26c-3.11-.85-4.43,4-1.33,4.82h0Z" transform="translate(-22.8 -16.29)" style="fill: #af1e48"/>
</svg>
