<svg id="Calque_11" data-name="Calque 11" xmlns="http://www.w3.org/2000/svg" viewBox="0 0 175.69 164.43">
  <title>zigzag</title>
  <path d="M21.36,71.53A154.11,154.11,0,0,0,62.67,22.42L58.1,20.49C48.68,57.27,28.93,89.94,9.33,122.06c-1.45,2.37,2.05,5.23,3.93,3L64.83,64.73c14.52-17,29.72-34.07,37-55.61l-4.91-.66c1.68,29.13-10.27,58.63-23.55,84a266.28,266.28,0,0,1-48.66,65.74c-1.95,1.93.71,5.68,3,3.93,25.9-19.53,52-39.2,74.36-62.82a226.06,226.06,0,0,0,29.28-37.5C139.82,48,146.07,32.15,144,15.67l-4.91.66c7.48,54.43-18,111.42-63.41,142.28l3,3.93c33-26.56,79.71-48.82,85.26-96h-5a173.81,173.81,0,0,1-30,100.28c-1.84,2.71,2.42,5,4.32,2.52L170.67,120,166,118.74l0.84,41.08c0,2.38,3.46,3.53,4.66,1.26L183,139.3l-4.57-.6a98.6,98.6,0,0,1,.86,25.27c-0.29,3.2,4.71,3.18,5,0a103.59,103.59,0,0,0-1-26.6c-0.35-2.13-3.62-2.4-4.57-.6l-11.47,21.78,4.66,1.26L171,118.74c-0.05-2.67-3.23-3.15-4.66-1.26L129,166.86l4.32,2.52A178.52,178.52,0,0,0,164,66.58c-0.05-3.3-4.63-3.12-5,0-5.32,45.09-52.35,67.1-83.8,92.42-2.2,1.77.69,5.52,3,3.93C125.65,130.67,151.71,71.81,143.9,15c-0.38-2.76-5.26-2.14-4.91.66,2.13,16.91-4.85,32.7-13.81,46.64a233.05,233.05,0,0,1-29,35.94c-21.55,22.23-46.33,41-71,59.58l3,3.93A270.65,270.65,0,0,0,78.47,93.5c13.29-25.8,25.15-55.54,23.46-85A2.51,2.51,0,0,0,97,7.79C89.6,29.69,73.45,47,58.71,64.21l-49,57.34,3.93,3C33.47,92.1,53.39,59,62.93,21.82c0.69-2.68-3.2-4.49-4.57-1.93A150.73,150.73,0,0,1,17.83,68c-2.54,2,1,5.49,3.54,3.54h0Z" transform="translate(-8.99 -6.02)" style="fill: #be1e2d"/>
</svg>
